<?xml version="1.0" standalone="no"?>
<!DOCTYPE svg PUBLIC "-//W3C//DTD SVG 20010904//EN"
 "http://www.w3.org/TR/2001/REC-SVG-20010904/DTD/svg10.dtd">
<svg version="1.0" xmlns="http://www.w3.org/2000/svg"
 width="1024.000000pt" height="1024.000000pt" viewBox="0 0 1024.000000 1024.000000"
 preserveAspectRatio="xMidYMid meet">
<metadata>
Created by potrace 1.14, written by Peter Selinger 2001-2017
</metadata>
<g transform="translate(0.000000,1024.000000) scale(0.100000,-0.100000)"
fill="#000000" stroke="none">
<path d="M0 5120 l0 -5120 5120 0 5120 0 0 5120 0 5120 -5120 0 -5120 0 0
-5120z m6506 3100 c60 -11 174 -35 254 -54 l145 -33 -3 -94 c-2 -52 -10 -141
-18 -199 -8 -58 -19 -168 -24 -245 -14 -189 -34 -379 -75 -695 -91 -690 -131
-1244 -142 -1923 -6 -362 -4 -405 12 -477 10 -44 21 -80 24 -80 10 0 225 173
321 258 47 42 168 153 270 248 102 95 208 190 235 211 116 86 431 351 498 417
40 39 114 117 164 173 141 154 341 293 420 293 63 -1 155 -25 232 -60 85 -40
170 -124 209 -209 22 -47 24 -62 18 -124 -8 -87 -28 -133 -109 -250 -35 -51
-85 -130 -112 -176 -99 -171 -208 -301 -566 -678 -387 -406 -551 -554 -812
-727 l-86 -57 31 -52 c18 -29 46 -78 64 -111 21 -39 80 -107 180 -208 195
-197 340 -321 496 -425 70 -46 130 -89 134 -94 11 -19 123 -87 172 -106 26 -9
73 -37 106 -60 32 -24 63 -43 68 -43 6 0 65 -24 132 -54 126 -56 149 -63 276
-92 227 -51 315 -150 265 -295 -9 -24 -26 -56 -38 -70 -50 -60 -414 -299 -455
-299 -12 0 -56 -16 -99 -34 -44 -19 -99 -40 -123 -46 -80 -18 -263 -24 -362
-10 -173 23 -403 104 -561 198 -86 51 -253 202 -312 283 -20 27 -89 90 -153
141 -64 50 -123 101 -131 111 -37 52 -331 370 -337 365 -4 -5 41 -344 65 -483
11 -66 25 -212 30 -325 6 -113 18 -243 26 -290 21 -119 20 -202 -4 -249 -62
-121 -246 -178 -550 -168 -167 5 -222 17 -313 71 -107 63 -129 108 -168 341
-30 184 -46 257 -80 367 -82 264 -132 506 -149 719 -15 186 -6 850 13 974 35
233 45 569 26 885 -14 228 -38 462 -55 545 -8 43 -18 196 -24 397 -6 187 -16
339 -22 355 -28 71 -42 808 -20 1023 27 262 91 525 173 710 88 202 96 215 173
303 63 73 84 89 186 144 64 35 133 67 155 72 68 16 215 12 330 -9z m-4576
-1995 c58 -13 159 -36 225 -51 185 -41 218 -56 296 -136 63 -64 67 -71 58 -96
-31 -80 -86 -429 -94 -597 l-6 -120 198 202 198 202 115 46 c258 103 448 142
645 130 294 -18 457 -148 546 -436 15 -47 23 -100 24 -146 0 -64 -3 -75 -25
-98 -32 -32 -136 -58 -311 -80 -132 -16 -135 -17 -204 -62 -38 -25 -186 -138
-328 -250 -142 -112 -286 -220 -321 -238 -151 -83 -158 -92 -271 -300 l-103
-189 -7 -101 c-5 -55 -7 -507 -6 -1005 1 -498 -3 -950 -8 -1006 -7 -83 -16
-117 -47 -189 -22 -48 -49 -94 -61 -102 -13 -8 -60 -21 -106 -27 -66 -10 -94
-20 -131 -45 -106 -73 -224 -111 -301 -97 -46 9 -111 67 -139 125 -18 38 -36
54 -118 106 -90 56 -101 66 -157 149 -45 68 -65 109 -81 170 -12 45 -39 115
-61 156 -21 41 -43 98 -48 125 -13 69 -29 303 -45 662 -8 166 -17 306 -20 312
-3 5 5 31 19 58 50 96 55 238 18 476 -12 79 -12 105 -2 128 14 36 5 230 -15
307 -8 27 -11 71 -9 98 3 31 -12 145 -40 314 -25 146 -50 321 -56 390 -29 331
-8 721 40 775 5 5 9 17 9 26 0 24 115 195 165 244 92 93 136 119 246 149 57
15 111 32 119 36 27 15 93 10 200 -15z"/>
</g>
</svg>
